<?xml version="1.0" standalone="no"?>
<svg xmlns:xlink="http://www.w3.org/1999/xlink" id="wave" style="transform:rotate(180deg); transition: 0.3s" viewBox="0 0 1440 490" version="1.1" xmlns="http://www.w3.org/2000/svg"><defs><linearGradient id="sw-gradient-0" x1="0" x2="0" y1="1" y2="0"><stop stop-color="rgba(0, 77.781, 11.112, 1)" offset="0%"/><stop stop-color="rgba(42.275, 255, 11, 1)" offset="100%"/></linearGradient></defs><path style="transform:translate(0, 0px); opacity:1" fill="url(#sw-gradient-0)" d="M0,147L120,196C240,245,480,343,720,334.8C960,327,1200,212,1440,179.7C1680,147,1920,196,2160,245C2400,294,2640,343,2880,351.2C3120,359,3360,327,3600,277.7C3840,229,4080,163,4320,187.8C4560,212,4800,327,5040,367.5C5280,408,5520,376,5760,326.7C6000,278,6240,212,6480,204.2C6720,196,6960,245,7200,220.5C7440,196,7680,98,7920,73.5C8160,49,8400,98,8640,147C8880,196,9120,245,9360,253.2C9600,261,9840,229,10080,212.3C10320,196,10560,196,10800,171.5C11040,147,11280,98,11520,73.5C11760,49,12000,49,12240,106.2C12480,163,12720,278,12960,326.7C13200,376,13440,359,13680,343C13920,327,14160,310,14400,294C14640,278,14880,261,15120,269.5C15360,278,15600,310,15840,318.5C16080,327,16320,310,16560,285.8C16800,261,17040,229,17160,212.3L17280,196L17280,490L17160,490C17040,490,16800,490,16560,490C16320,490,16080,490,15840,490C15600,490,15360,490,15120,490C14880,490,14640,490,14400,490C14160,490,13920,490,13680,490C13440,490,13200,490,12960,490C12720,490,12480,490,12240,490C12000,490,11760,490,11520,490C11280,490,11040,490,10800,490C10560,490,10320,490,10080,490C9840,490,9600,490,9360,490C9120,490,8880,490,8640,490C8400,490,8160,490,7920,490C7680,490,7440,490,7200,490C6960,490,6720,490,6480,490C6240,490,6000,490,5760,490C5520,490,5280,490,5040,490C4800,490,4560,490,4320,490C4080,490,3840,490,3600,490C3360,490,3120,490,2880,490C2640,490,2400,490,2160,490C1920,490,1680,490,1440,490C1200,490,960,490,720,490C480,490,240,490,120,490L0,490Z"/></svg>